<svg width="127" height="128" viewBox="0 0 127 128" fill="none" xmlns="http://www.w3.org/2000/svg">
<path d="M14.3403 55.448L15.2682 51.1041L16.196 50.6803C16.5259 50.3413 20.1825 47.5725 21.9695 46.2305L26.712 43.052L33.0009 39.9796L40.2178 39.2379L45.682 41.7807L47.3315 43.052L48.4656 41.039L50.2183 39.2379L52.4864 37.8606L55.9917 36.4833L59.0847 36.0595H62.59H66.4046H69.7037L72.6936 35.7416L75.7865 35L104.551 57.5669V62.0167L105.066 64.1357L105.685 65.1952V66.5725L88.8799 66.9963L84.756 67.2082L81.6631 68.3736L78.6732 69.539L76.4051 71.2342L74.8586 72.9294V72.5056L74.3431 71.2342L73.7245 70.5985L72.6936 70.1747H71.5595L71.044 70.5985L70.1161 70.1747L70.7347 68.6915V67.2082L70.1161 67.9498L69.1882 66.9963L68.5696 69.539L67.0232 72.5056L66.4046 75.2602H63.0024L56.6103 76.3197L51.5585 78.2268L47.3315 80.4517L42.2797 83.6301L35.6815 87.868L33.0009 89.1394L14.3403 55.448Z" fill="white"/>
<path d="M15.2682 51.1041L14.3403 55.448L33.001 89.1394M15.2682 51.1041C15.44 51.1041 15.8661 51.0193 16.196 50.6803M15.2682 51.1041L16.196 50.6803M16.196 50.6803C16.5259 50.3413 20.1825 47.5725 21.9695 46.2305L26.712 43.052L33.001 39.9796L40.2178 39.2379L45.682 41.7807L47.3315 43.052M16.196 50.6803L33.4133 80.4517M47.3315 43.052L69.1882 66.9963M47.3315 43.052L48.4656 41.039L50.2183 39.2379L52.4864 37.8606L55.9917 36.4833L59.0847 36.0595H62.59H66.4046H69.7037L72.6936 35.7416L75.7865 35L104.551 57.5669M69.1882 66.9963L68.5696 69.539L67.0232 72.5056L66.4046 75.2602H63.0024L56.6103 76.3197L51.5585 78.2268L47.3315 80.4517L42.2797 83.6301L35.6815 87.868L33.001 89.1394M69.1882 66.9963C68.2604 67.0669 66.3427 67.2082 66.0953 67.2082C65.8479 67.2082 63.4491 67.2082 62.2807 67.2082L58.363 67.9498L50.8368 70.5985L33.4133 80.4517M69.1882 66.9963L70.1161 67.9498L70.7347 67.2082M33.001 89.1394L33.4133 80.4517M104.551 57.5669L103.52 57.9907L99.1897 58.4145H93.4162L85.3746 58.9442L79.7042 60.4275L74.3431 63.3941L71.5595 66.1487L70.7347 67.2082M104.551 57.5669V62.0167L105.066 64.1357L105.685 65.1952V66.5725L88.8799 66.9963L84.756 67.2082L81.6631 68.3736L78.6732 69.539L76.4051 71.2342L74.8586 72.9294V72.5056L74.3431 71.2342L73.7245 70.5985L72.6936 70.1747H71.5595L71.044 70.5985L70.1161 70.1747L70.7347 68.6915V67.2082" stroke="black" stroke-width="3"/>
<path d="M13 56.4015L14.3403 55.6599L33.3102 88.5037L35.2691 87.6561L42.8983 82.4647L49.0842 78.9684L55.27 76.5316L59.2909 75.1543L63.2086 74.6245L65.5798 75.1543L66.0953 74.6245L66.817 72.7175L67.3325 70.8104L68.2603 69.7509L68.7758 67.4201H70.4254H70.9409V68.1617L70.4254 69.2212L70.9409 69.7509H72.7966L74.1369 70.3866L74.9617 71.9758L75.3741 71.3401L79.8073 68.6915L84.5498 66.6784H87.0241L105.376 66.2546L104.448 61.5929C104.619 61.2398 105.046 60.5758 105.376 60.7454C105.705 60.9149 110.737 66.1134 113.211 68.6915C111.527 68.8327 108.097 69.1364 107.85 69.2212C107.602 69.3059 98.8804 70.316 94.5503 70.8104L84.5498 71.9758L79.8073 72.7175L77.8484 73.3532L75.3741 74.6245L72.7966 76.5316L70.4254 77.4851H68.7758H65.5798H62.7962L32.3824 92L13 56.4015Z" fill="#352000"/>
<path d="M69.5857 39.5926L67.5703 37.2593L70.9817 37.1802L73.6165 37L80.4688 43.2222L74.4226 41.1481V44L73.2134 42.963L69.5857 39.5926Z" fill="#7A0000"/>
</svg>
