<svg width="208" height="640" viewBox="0 0 208 640" fill="none" xmlns="http://www.w3.org/2000/svg">
<rect width="154" height="404.431" transform="matrix(-1 0 0 1 180 0.923065)" fill="#7A0000"/>
<path d="M104.51 503.898C103.172 502.705 103.172 500.613 104.51 499.421L175.003 436.54C176.937 434.815 180 436.187 180 438.778L180 564.54C180 567.131 176.937 568.504 175.003 566.779L104.51 503.898Z" fill="#7A0000"/>
<path d="M101.49 499.102C102.828 500.295 102.828 502.387 101.49 503.579L30.997 566.46C29.0634 568.185 26 566.813 26 564.222L26 438.46C26 435.869 29.0634 434.496 30.997 436.221L101.49 499.102Z" fill="#7A0000"/>
<rect width="154" height="108.738" transform="matrix(-1 0 0 1 180 393.908)" fill="#7A0000"/>
</svg>
