<svg width="556" height="195" viewBox="0 0 556 195" fill="none" xmlns="http://www.w3.org/2000/svg">
<g clip-path="url(#clip0_2_2)">
<path d="M510 119L508.5 114L498.5 116.5L502 124.5C502.667 126.667 504.321 129.142 504.5 129.5C505 130.5 506.333 132.5 506.5 133L508.5 135C510.167 135.5 512.1 137 512.5 137C513 137 516.5 138 517.5 138C518.5 138 522.5 139 523 139H526C526.5 139 529 139.5 530 139.5C530.8 139.5 532 139.833 532.5 140C533.167 140.167 534.6 140.6 535 141L535.5 141.5L536 142.25V143V144L535.5 145L534 146L521.5 147.5H484.5L449 145C432.333 143.5 398.8 140.5 398 140.5C397.2 140.5 361 136.833 343 135C324.5 133.167 287.3 129.5 286.5 129.5C285.7 129.5 249.5 127.833 231.5 127H173C157.167 128.667 124.9 132 122.5 132C119.5 132 71.5 140.5 68.5 141.5C66.1 142.3 25.1667 151.167 5 155.5L33.5 170L17.5 194.5L33.5 188C43 184.333 62.5 176.8 64.5 176C66.5 175.2 93 165.667 106 161L141 150L160 145.5C166 144.667 178.4 143 180 143C181.6 143 195.333 141.333 202 140.5C209.667 140.333 225.8 140.1 229 140.5C233 141 253 141.5 254 141.5C254.8 141.5 271 142.5 279 143L336 147.5L468 157H511.5H518.5H521.5L530 156L534 155.5L538 154.5L540.5 153L543.5 151L545 149.5L546.5 148L548 146.5L549 144L549.5 141.5V139L549 137L548 135.5L547 134L545 133L542 132.5L539 132L534 131.5L530 131L525 130.5L519.5 129.5L515.5 128L512.5 125.5L511 122.5L510 119Z" fill="url(#paint0_linear_2_2)" stroke="url(#paint1_linear_2_2)" stroke-width="2"/>
<path d="M98.328 63.56C98.328 69 96.408 73.704 92.568 77.672C88.728 81.576 83.128 84.392 75.768 86.12C79.736 87.208 82.744 89 84.792 91.496C86.84 93.928 87.864 96.744 87.864 99.944C87.864 105 86.264 109.384 83.064 113.096C79.928 116.808 75.32 119.688 69.24 121.736C63.16 123.72 55.832 124.712 47.256 124.712C44.056 124.712 41.496 124.616 39.576 124.424C39.512 126.216 38.744 127.56 37.272 128.456C35.8 129.352 33.912 129.8 31.608 129.8C29.304 129.8 27.704 129.288 26.808 128.264C25.976 127.24 25.624 125.736 25.752 123.752C26.328 114.792 27.448 105.416 29.112 95.624C30.776 85.768 32.888 76.264 35.448 67.112C35.896 65.512 36.792 64.392 38.136 63.752C39.48 63.112 41.24 62.792 43.416 62.792C47.32 62.792 49.272 63.88 49.272 66.056C49.272 66.952 49.08 67.976 48.696 69.128C47.032 74.12 45.368 80.904 43.704 89.48C42.04 97.992 40.856 106.12 40.152 113.864C43.224 114.12 45.72 114.248 47.64 114.248C56.6 114.248 63.16 112.968 67.32 110.408C71.544 107.784 73.656 104.456 73.656 100.424C73.656 97.608 72.44 95.24 70.008 93.32C67.64 91.4 63.64 90.344 58.008 90.152C56.728 90.088 55.832 89.768 55.32 89.192C54.808 88.616 54.552 87.688 54.552 86.408C54.552 84.552 54.936 83.048 55.704 81.896C56.472 80.744 57.88 80.136 59.928 80.072C64.472 79.944 68.568 79.272 72.216 78.056C75.928 76.84 78.84 75.144 80.952 72.968C83.064 70.728 84.12 68.136 84.12 65.192C84.12 61.48 82.296 58.568 78.648 56.456C75 54.28 69.4 53.192 61.848 53.192C55 53.192 48.376 54.088 41.976 55.88C35.576 57.608 30.136 59.816 25.656 62.504C23.608 63.72 21.88 64.328 20.472 64.328C19.32 64.328 18.424 63.944 17.784 63.176C17.208 62.344 16.92 61.32 16.92 60.104C16.92 58.504 17.24 57.128 17.88 55.976C18.584 54.824 20.216 53.512 22.776 52.04C28.152 48.968 34.456 46.568 41.688 44.84C48.92 43.112 56.312 42.248 63.864 42.248C75.448 42.248 84.088 44.2 89.784 48.104C95.48 52.008 98.328 57.16 98.328 63.56ZM230.721 103.592C231.553 103.592 232.193 103.976 232.641 104.744C233.153 105.512 233.409 106.568 233.409 107.912C233.409 110.472 232.801 112.456 231.585 113.864C228.705 117.384 225.793 120.2 222.849 122.312C219.905 124.424 216.417 125.48 212.385 125.48C207.457 125.48 203.489 124.072 200.481 121.256C197.473 118.44 195.969 114.696 195.969 110.024C195.969 107.528 197.249 105.736 199.809 104.648C202.625 103.432 204.641 102.152 205.857 100.808C207.073 99.4 207.681 97.704 207.681 95.72C207.681 94.568 207.425 93.704 206.913 93.128C206.465 92.552 205.889 92.264 205.185 92.264C203.457 92.264 201.537 93.512 199.425 96.008C197.377 98.504 195.457 101.736 193.665 105.704C191.873 109.608 190.465 113.64 189.441 117.8C188.737 120.808 187.905 122.856 186.945 123.944C186.049 124.968 184.609 125.48 182.625 125.48C180.641 125.48 179.169 124.776 178.209 123.368C177.313 121.896 176.705 119.656 176.385 116.648C176.065 113.64 175.905 109.224 175.905 103.4C175.905 93.544 176.897 83.272 178.881 72.584C180.929 61.896 183.905 52.936 187.809 45.704C191.777 38.408 196.513 34.76 202.017 34.76C204.961 34.76 207.329 36.04 209.121 38.6C210.977 41.096 211.905 44.36 211.905 48.392C211.905 54.856 210.017 61.576 206.241 68.552C202.465 75.464 196.321 83.56 187.809 92.84C187.617 96.168 187.521 99.592 187.521 103.112C190.593 95.112 194.113 89.32 198.081 85.736C202.049 82.088 205.761 80.264 209.217 80.264C212.417 80.264 214.977 81.352 216.897 83.528C218.881 85.704 219.873 88.392 219.873 91.592C219.873 95.112 218.977 98.344 217.185 101.288C215.393 104.232 212.321 106.856 207.969 109.16C208.225 110.888 208.993 112.296 210.273 113.384C211.617 114.408 213.217 114.92 215.073 114.92C217.057 114.92 218.977 114.152 220.833 112.616C222.689 111.08 225.121 108.52 228.129 104.936C228.897 104.04 229.761 103.592 230.721 103.592ZM200.001 44.264C198.849 44.264 197.569 45.928 196.161 49.256C194.753 52.52 193.377 56.968 192.033 62.6C190.753 68.168 189.697 74.248 188.865 80.84C192.833 76.168 196.097 71.08 198.657 65.576C201.281 60.072 202.593 55.08 202.593 50.6C202.593 48.552 202.369 46.984 201.921 45.896C201.473 44.808 200.833 44.264 200.001 44.264ZM232.487 125.48C230.055 125.48 228.327 124.2 227.303 121.64C226.343 119.08 225.863 114.984 225.863 109.352C225.863 101.032 227.047 93.128 229.415 85.64C229.991 83.784 230.919 82.44 232.199 81.608C233.543 80.712 235.399 80.264 237.767 80.264C239.047 80.264 239.943 80.424 240.455 80.744C240.967 81.064 241.223 81.672 241.223 82.568C241.223 83.592 240.743 85.896 239.783 89.48C239.143 92.04 238.631 94.28 238.247 96.2C237.863 98.056 237.543 100.392 237.287 103.208C239.015 98.216 241.063 93.992 243.431 90.536C245.863 87.08 248.327 84.52 250.823 82.856C253.383 81.128 255.783 80.264 258.023 80.264C260.263 80.264 261.831 80.776 262.727 81.8C263.687 82.824 264.167 84.392 264.167 86.504C264.167 88.552 263.559 92.264 262.343 97.64C261.831 99.944 261.479 101.672 261.287 102.824C264.487 94.952 268.039 89.224 271.943 85.64C275.847 82.056 279.495 80.264 282.887 80.264C287.047 80.264 289.127 82.344 289.127 86.504C289.127 89 288.423 93.512 287.015 100.04C285.799 105.608 285.191 109.288 285.191 111.08C285.191 113.64 286.119 114.92 287.975 114.92C289.255 114.92 290.759 114.152 292.487 112.616C294.279 111.016 296.647 108.456 299.591 104.936C300.359 104.04 301.223 103.592 302.183 103.592C303.015 103.592 303.655 103.976 304.103 104.744C304.615 105.512 304.871 106.568 304.871 107.912C304.871 110.472 304.263 112.456 303.047 113.864C300.295 117.256 297.319 120.04 294.119 122.216C290.983 124.392 287.399 125.48 283.367 125.48C280.103 125.48 277.639 124.552 275.975 122.696C274.311 120.776 273.479 118.024 273.479 114.44C273.479 112.648 273.927 109.448 274.823 104.84C275.655 100.808 276.071 98.024 276.071 96.488C276.071 95.464 275.719 94.952 275.015 94.952C274.183 94.952 272.999 96.04 271.463 98.216C269.927 100.328 268.391 103.144 266.855 106.664C265.319 110.184 264.071 113.896 263.111 117.8C262.407 120.872 261.575 122.92 260.615 123.944C259.719 124.968 258.247 125.48 256.199 125.48C254.087 125.48 252.487 124.488 251.399 122.504C250.375 120.456 249.863 117.992 249.863 115.112C249.863 112.68 250.183 109.16 250.823 104.552C251.335 100.456 251.591 97.768 251.591 96.488C251.591 95.464 251.239 94.952 250.535 94.952C249.575 94.952 248.359 96.104 246.887 98.408C245.415 100.712 243.975 103.656 242.567 107.24C241.223 110.824 240.135 114.344 239.303 117.8C238.599 120.808 237.767 122.856 236.807 123.944C235.911 124.968 234.471 125.48 232.487 125.48ZM308.916 125.48C304.948 125.48 301.78 124.04 299.412 121.16C297.044 118.28 295.86 114.504 295.86 109.832C295.86 104.712 297.044 99.88 299.412 95.336C301.78 90.728 304.916 87.048 308.82 84.296C312.788 81.48 316.98 80.072 321.396 80.072C322.804 80.072 323.732 80.36 324.18 80.936C324.692 81.448 325.108 82.408 325.428 83.816C326.772 83.56 328.18 83.432 329.652 83.432C332.788 83.432 334.356 84.552 334.356 86.792C334.356 88.136 333.876 91.336 332.916 96.392C331.444 103.752 330.708 108.872 330.708 111.752C330.708 112.712 330.932 113.48 331.38 114.056C331.892 114.632 332.532 114.92 333.3 114.92C334.516 114.92 335.988 114.152 337.716 112.616C339.444 111.016 341.78 108.456 344.724 104.936C345.492 104.04 346.356 103.592 347.316 103.592C348.148 103.592 348.788 103.976 349.236 104.744C349.748 105.512 350.004 106.568 350.004 107.912C350.004 110.472 349.396 112.456 348.18 113.864C345.556 117.128 342.772 119.88 339.828 122.12C336.884 124.36 334.036 125.48 331.284 125.48C329.172 125.48 327.22 124.776 325.428 123.368C323.7 121.896 322.388 119.912 321.492 117.416C318.164 122.792 313.972 125.48 308.916 125.48ZM312.372 115.784C313.78 115.784 315.124 114.952 316.404 113.288C317.684 111.624 318.612 109.416 319.188 106.664L322.74 89C320.052 89.064 317.556 90.088 315.252 92.072C313.012 93.992 311.22 96.552 309.876 99.752C308.532 102.952 307.86 106.344 307.86 109.928C307.86 111.912 308.244 113.384 309.012 114.344C309.844 115.304 310.964 115.784 312.372 115.784ZM349.018 125.48C346.586 125.48 344.858 124.2 343.834 121.64C342.874 119.08 342.394 114.984 342.394 109.352C342.394 101.032 343.578 93.128 345.946 85.64C346.522 83.784 347.45 82.44 348.73 81.608C350.074 80.712 351.93 80.264 354.298 80.264C355.578 80.264 356.474 80.424 356.986 80.744C357.498 81.064 357.754 81.672 357.754 82.568C357.754 83.592 357.274 85.896 356.314 89.48C355.674 92.04 355.162 94.28 354.778 96.2C354.394 98.12 354.074 100.488 353.818 103.304C355.93 97.8 358.298 93.32 360.922 89.864C363.546 86.408 366.106 83.944 368.602 82.472C371.162 81 373.498 80.264 375.61 80.264C379.77 80.264 381.85 82.344 381.85 86.504C381.85 87.336 381.562 89.352 380.986 92.552C380.474 95.112 380.218 96.712 380.218 97.352C380.218 99.592 381.018 100.712 382.618 100.712C384.41 100.712 386.714 99.304 389.53 96.488C390.362 95.656 391.226 95.24 392.122 95.24C392.954 95.24 393.594 95.624 394.042 96.392C394.554 97.096 394.81 98.056 394.81 99.272C394.81 101.64 394.17 103.496 392.89 104.84C391.098 106.696 388.986 108.296 386.554 109.64C384.186 110.92 381.658 111.56 378.97 111.56C375.578 111.56 372.986 110.696 371.194 108.968C369.466 107.24 368.602 104.904 368.602 101.96C368.602 101 368.698 100.04 368.89 99.08C369.018 97.8 369.082 96.936 369.082 96.488C369.082 95.464 368.73 94.952 368.026 94.952C367.066 94.952 365.786 96.04 364.186 98.216C362.65 100.328 361.114 103.144 359.578 106.664C358.042 110.184 356.794 113.896 355.834 117.8C355.13 120.808 354.298 122.856 353.338 123.944C352.442 124.968 351.002 125.48 349.018 125.48ZM441.377 103.592C442.209 103.592 442.849 103.976 443.297 104.744C443.809 105.512 444.065 106.568 444.065 107.912C444.065 110.472 443.457 112.456 442.241 113.864C439.361 117.384 436.449 120.2 433.505 122.312C430.561 124.424 427.073 125.48 423.041 125.48C418.113 125.48 414.145 124.072 411.137 121.256C408.129 118.44 406.625 114.696 406.625 110.024C406.625 107.528 407.905 105.736 410.465 104.648C413.281 103.432 415.297 102.152 416.513 100.808C417.729 99.4 418.337 97.704 418.337 95.72C418.337 94.568 418.081 93.704 417.569 93.128C417.121 92.552 416.545 92.264 415.841 92.264C414.113 92.264 412.193 93.512 410.081 96.008C408.033 98.504 406.113 101.736 404.321 105.704C402.529 109.608 401.121 113.64 400.097 117.8C399.393 120.808 398.561 122.856 397.601 123.944C396.705 124.968 395.265 125.48 393.281 125.48C391.297 125.48 389.825 124.776 388.865 123.368C387.969 121.896 387.361 119.656 387.041 116.648C386.721 113.64 386.561 109.224 386.561 103.4C386.561 93.544 387.553 83.272 389.537 72.584C391.585 61.896 394.561 52.936 398.465 45.704C402.433 38.408 407.169 34.76 412.673 34.76C415.617 34.76 417.985 36.04 419.777 38.6C421.633 41.096 422.561 44.36 422.561 48.392C422.561 54.856 420.673 61.576 416.897 68.552C413.121 75.464 406.977 83.56 398.465 92.84C398.273 96.168 398.177 99.592 398.177 103.112C401.249 95.112 404.769 89.32 408.737 85.736C412.705 82.088 416.417 80.264 419.873 80.264C423.073 80.264 425.633 81.352 427.553 83.528C429.537 85.704 430.529 88.392 430.529 91.592C430.529 95.112 429.633 98.344 427.841 101.288C426.049 104.232 422.977 106.856 418.625 109.16C418.881 110.888 419.649 112.296 420.929 113.384C422.273 114.408 423.873 114.92 425.729 114.92C427.713 114.92 429.633 114.152 431.489 112.616C433.345 111.08 435.777 108.52 438.785 104.936C439.553 104.04 440.417 103.592 441.377 103.592ZM410.657 44.264C409.505 44.264 408.225 45.928 406.817 49.256C405.409 52.52 404.033 56.968 402.689 62.6C401.409 68.168 400.353 74.248 399.521 80.84C403.489 76.168 406.753 71.08 409.313 65.576C411.937 60.072 413.249 55.08 413.249 50.6C413.249 48.552 413.025 46.984 412.577 45.896C412.129 44.808 411.489 44.264 410.657 44.264ZM479.143 103.592C479.975 103.592 480.615 103.976 481.063 104.744C481.575 105.512 481.831 106.568 481.831 107.912C481.831 110.472 481.223 112.456 480.007 113.864C477.639 116.744 474.279 119.4 469.927 121.832C465.639 124.264 461.031 125.48 456.103 125.48C449.383 125.48 444.167 123.656 440.455 120.008C436.743 116.36 434.887 111.368 434.887 105.032C434.887 100.616 435.815 96.52 437.671 92.744C439.527 88.904 442.087 85.864 445.351 83.624C448.679 81.384 452.423 80.264 456.583 80.264C460.295 80.264 463.271 81.384 465.511 83.624C467.751 85.8 468.871 88.776 468.871 92.552C468.871 96.968 467.271 100.776 464.071 103.976C460.935 107.112 455.591 109.608 448.039 111.464C449.639 114.408 452.679 115.88 457.159 115.88C460.039 115.88 463.303 114.888 466.951 112.904C470.663 110.856 473.863 108.2 476.551 104.936C477.319 104.04 478.183 103.592 479.143 103.592ZM454.951 89.672C452.583 89.672 450.567 91.048 448.903 93.8C447.303 96.552 446.503 99.88 446.503 103.784V103.976C450.279 103.08 453.255 101.736 455.431 99.944C457.607 98.152 458.695 96.072 458.695 93.704C458.695 92.488 458.343 91.528 457.639 90.824C456.999 90.056 456.103 89.672 454.951 89.672ZM508.49 103.592C509.194 108.84 510.218 114.024 511.562 119.144C511.818 119.976 511.946 120.84 511.946 121.736C511.946 124.616 510.186 126.056 506.666 126.056C504.682 126.056 503.146 125.512 502.058 124.424C501.034 123.336 500.074 121.288 499.178 118.28L499.082 117.896C496.65 120.904 494.442 122.92 492.458 123.944C490.538 124.968 488.298 125.48 485.738 125.48C481.834 125.48 478.602 124.04 476.042 121.16C473.546 118.216 472.298 114.408 472.298 109.736C472.298 104.616 473.386 99.88 475.562 95.528C477.738 91.176 480.714 87.624 484.49 84.872C488.266 82.056 492.49 80.36 497.161 79.784C498.378 67.688 500.682 57.16 504.074 48.2C507.53 39.24 512.106 34.76 517.802 34.76C520.554 34.76 522.826 36.008 524.618 38.504C526.474 41 527.402 44.776 527.402 49.832C527.402 56.872 525.674 65.096 522.218 74.504C518.762 83.912 514.186 93.608 508.49 103.592ZM516.746 44.168C514.89 44.168 513.13 48.904 511.466 58.376C509.866 67.848 508.778 78.152 508.202 89.288C515.306 73.928 518.858 61.448 518.858 51.848C518.858 49.416 518.634 47.528 518.186 46.184C517.802 44.84 517.322 44.168 516.746 44.168ZM489.098 115.784C490.378 115.784 491.594 115.304 492.746 114.344C493.962 113.384 495.498 111.528 497.354 108.776C496.714 104.104 496.394 99.272 496.394 94.28C496.394 92.296 496.426 90.76 496.49 89.672C492.97 90.696 490.058 93.032 487.754 96.68C485.45 100.328 484.298 104.36 484.298 108.776C484.298 113.448 485.898 115.784 489.098 115.784Z" fill="black"/>
<path d="M504 131.5L498 118L510.5 115L511.5 119.5L512.5 123L515.5 126.5L518.5 128L525 129.5L530.5 130L535 130.5C536.833 130.667 538.434 131 539 131C540.5 131 541 131.5 543 131.5H544.5L545.5 132L546.5 132.5L548 133.5L549.5 135L550.5 137.5V138.5V140V143L548.5 148L543.5 152.5L539 155.5L532 157L528.5 157.5L525.5 158H523H522H521H520L519.5 146.5L525.5 146L530 145.5L534.5 144.5L535 143.5V143L534.5 142L534 141.5L530 140.5L523 140L517.5 139L511 138L507 135.5L504 131.5Z" fill="url(#paint2_linear_2_2)"/>
<path d="M82.3508 101.448L83.286 97.1041L84.2212 96.6803C84.5537 96.3413 88.239 93.5725 90.0401 92.2305L94.82 89.052L101.158 85.9796L108.432 85.2379L113.939 87.7807L115.602 89.052L116.745 87.039L118.511 85.2379L120.797 83.8606L124.33 82.4833L127.448 82.0595H130.98H134.825H138.15L141.164 81.7416L144.281 81L173.272 103.567V108.017L173.791 110.136L174.415 111.195V112.572L157.477 112.996L153.321 113.208L150.204 114.374L147.19 115.539L144.904 117.234L143.346 118.929V118.506L142.826 117.234L142.203 116.599L141.164 116.175H140.021L139.501 116.599L138.566 116.175L139.189 114.691V113.208L138.566 113.95L137.631 112.996L137.007 115.539L135.449 118.506L134.825 121.26H131.396L124.954 122.32L119.862 124.227L115.602 126.452L110.51 129.63L103.86 133.868L101.158 135.139L82.3508 101.448Z" fill="white"/>
<path d="M83.286 97.1041L82.3508 101.448L101.158 135.139M83.286 97.1041C83.4592 97.1041 83.8887 97.0193 84.2212 96.6803M83.286 97.1041L84.2212 96.6803M84.2212 96.6803C84.5537 96.3413 88.239 93.5725 90.0401 92.2305L94.82 89.052L101.158 85.9796L108.432 85.2379L113.939 87.7807L115.602 89.052M84.2212 96.6803L101.574 126.452M115.602 89.052L137.631 112.996M115.602 89.052L116.745 87.039L118.511 85.2379L120.797 83.8606L124.33 82.4833L127.448 82.0595H130.98H134.825H138.15L141.164 81.7416L144.281 81L173.272 103.567M137.631 112.996L137.007 115.539L135.449 118.506L134.825 121.26H131.396L124.954 122.32L119.862 124.227L115.602 126.452L110.51 129.63L103.86 133.868L101.158 135.139M137.631 112.996C136.695 113.067 134.763 113.208 134.513 113.208C134.264 113.208 131.846 113.208 130.669 113.208L126.72 113.95L119.135 116.599L101.574 126.452M137.631 112.996L138.566 113.95L139.189 113.208M101.158 135.139L101.574 126.452M173.272 103.567L172.233 103.991L167.868 104.414H162.049L153.944 104.944L148.229 106.428L142.826 109.394L140.021 112.149L139.189 113.208M173.272 103.567V108.017L173.791 110.136L174.415 111.195V112.572L157.477 112.996L153.321 113.208L150.204 114.374L147.19 115.539L144.904 117.234L143.346 118.929V118.506L142.826 117.234L142.203 116.599L141.164 116.175H140.021L139.501 116.599L138.566 116.175L139.189 114.691V113.208" stroke="black" stroke-width="3"/>
<path d="M81 102.401L82.3508 101.66L101.47 134.504L103.444 133.656L111.134 128.465L117.368 124.968L123.603 122.532L127.655 121.154L131.604 120.625L133.994 121.154L134.513 120.625L135.241 118.717L135.76 116.81L136.695 115.751L137.215 113.42H138.878H139.397V114.162L138.878 115.221L139.397 115.751H141.267L142.618 116.387L143.45 117.976L143.865 117.34L148.333 114.691L153.113 112.678H155.607L174.103 112.255L173.168 107.593C173.341 107.24 173.77 106.576 174.103 106.745C174.435 106.915 179.506 112.113 182 114.691C180.303 114.833 176.846 115.136 176.597 115.221C176.347 115.306 167.557 116.316 163.192 116.81L153.113 117.976L148.333 118.717L146.359 119.353L143.865 120.625L141.267 122.532L138.878 123.485H137.215H133.994H131.188L100.535 138L81 102.401Z" fill="#352000"/>
</g>
<defs>
<linearGradient id="paint0_linear_2_2" x1="517.5" y1="144" x2="535.5" y2="144" gradientUnits="userSpaceOnUse">
<stop offset="0.208333" stop-color="#7A0000"/>
<stop offset="0.9999"/>
<stop offset="1"/>
</linearGradient>
<linearGradient id="paint1_linear_2_2" x1="515" y1="115.5" x2="527.5" y2="114" gradientUnits="userSpaceOnUse">
<stop offset="0.109375" stop-color="#7A0000"/>
<stop offset="0.591952"/>
</linearGradient>
<linearGradient id="paint2_linear_2_2" x1="501" y1="124" x2="501" y2="161" gradientUnits="userSpaceOnUse">
<stop offset="0.113218"/>
<stop offset="0.255261"/>
<stop offset="0.636445" stop-color="#7A0000"/>
</linearGradient>
<clipPath id="clip0_2_2">
<rect width="556" height="195" fill="white"/>
</clipPath>
</defs>
</svg>
